#!OML:ASF F:\VICON\USERDATA\INSTALL\rory3\rory3.ASF
:FULLY-SPECIFIED
:DEGREES
563
root 4.4995 15.7438 2.18232 22.6342 -7.46513 0.223658
lowerback 12.2878 -2.05264 2.54428
upperback 3.26856 -2.38444 0.28035
thorax -3.54755 -1.19203 -0.779575
lowerneck -13.8744 -0.803312 -3.20847
upperneck 35.9404 0.0654601 -1.19237
head 14.7727 -0.613653 0.0740232
rclavicle 3.5334e-014 1.09332e-014
rhumerus -66.044 56.3234 -66.0737
rradius 72.0732
rwrist -21.2713
rhand -7.54333 -40.2576
rfingers 7.12502
rthumb 18.3482 -69.4122
lclavicle 3.5334e-014 1.09332e-014
lhumerus -54.5718 -67.8427 55.5947
lradius 65.8247
lwrist 43.9148
lhand -15.6385 -26.8105
lfingers 7.12502
lthumb 10.5489 2.90482
rfemur -80.8868 -6.28826 23.9267
rtibia 43.3363
rfoot 38.4883 -0.157979
rtoes 8.41442
lfemur -56.4197 -1.37611 -30.4771
ltibia 60.3807
lfoot -24.7411 4.58588
ltoes 15.6737
564
root 4.50701 15.7452 2.18001 22.5775 -7.28657 0.39025
lowerback 12.3128 -2.05655 2.69075
upperback 3.33309 -2.37697 0.149501
thorax -3.50468 -1.18808 -0.999756
lowerneck -13.9881 -0.896471 -3.06845
upperneck 35.9192 -0.117993 -1.15789
head 14.7895 -0.666041 0.0336772
rclavicle 1.2921e-014 1.25234e-014
rhumerus -66.2623 55.8736 -66.0642
rradius 72.0446
rwrist -21.0584
rhand -7.6735 -40.1704
rfingers 7.12502
rthumb 18.223 -69.3368
lclavicle 1.2921e-014 1.25234e-014
lhumerus -53.8881 -68.3767 54.7912
lradius 65.818
lwrist 43.9769
lhand -15.9942 -27.0729
lfingers 7.12502
lthumb 10.2057 2.65955
rfemur -80.9315 -6.62438 23.8729
rtibia 43.4176
rfoot 38.333 -0.262414
rtoes 8.39006
lfemur -56.3199 -1.73244 -30.5712
ltibia 60.397
lfoot -24.7804 4.71442
ltoes 15.6643
565
root 4.51113 15.7432 2.17958 22.5978 -7.10139 0.410061
lowerback 12.2184 -2.19963 2.80887
upperback 3.26043 -2.55053 0.197289
thorax -3.53855 -1.27507 -0.991145
lowerneck -13.6717 -0.851255 -3.29845
upperneck 35.9124 -0.0279496 -1.08292
head 14.7137 -0.649229 0.121165
rclavicle 1.56046e-014 -2.03754e-014
rhumerus -66.4761 56.2079 -66.0962
rradius 71.9772
rwrist -20.8911
rhand -7.46711 -39.9985
rfingers 7.12502
rthumb 18.4215 -69.1463
lclavicle 1.56046e-014 -2.03754e-014
lhumerus -54.6514 -68.3189 55.34
lradius 65.7826
lwrist 44.1559
lhand -15.6632 -26.8237
lfingers 7.12502
lthumb 10.5251 2.89281
rfemur -81.0255 -6.83311 23.9176
rtibia 43.5048
rfoot 38.406 -0.387035
rtoes 8.79229
lfemur -56.3279 -2.02543 -30.4988
ltibia 60.4504
lfoot -24.7531 4.80401
ltoes 15.5789
566
root 4.50732 15.736 2.17871 22.6496 -7.09875 0.266031
lowerback 12.1609 -2.28545 2.87901
upperback 3.20326 -2.65193 0.294482
thorax -3.56931 -1.3262 -0.914431
lowerneck -13.4374 -0.774561 -3.50122
upperneck 35.8421 0.129313 -1.08391
head 14.6262 -0.609778 0.182844
rclavicle -9.74045e-015 1.5704e-014
rhumerus -66.618 56.8028 -66.1293
rradius 71.8409
rwrist -20.8429
rhand -7.43977 -39.9592
rfingers 7.12502
rthumb 18.4478 -69.1045
lclavicle -9.74045e-015 1.5704e-014
lhumerus -55.6093 -68.0709 55.9717
lradius 65.8083
lwrist 44.3684
lhand -15.2433 -26.3033
lfingers 7.12502
lthumb 10.93 3.3922
rfemur -81.1139 -6.67755 23.9629
rtibia 43.5979
rfoot 38.403 -0.502126
rtoes 8.81188
lfemur -56.4614 -2.1014 -30.2802
ltibia 60.565
lfoot -24.7064 4.92755
ltoes 15.4448
